# Blender 4.4.3
# www.blender.org
mtllib basket003.mtl
o basket.003
v 0.164348 0.249112 0.120781
v 0.173951 0.251166 0.102027
v 0.156841 0.280924 0.120768
v 0.167205 0.279754 0.102016
v 0.148768 0.315438 0.120755
v 0.160097 0.310143 0.102004
v 0.192785 0.255218 0.121331
v 0.180833 0.252662 0.144670
v 0.187528 0.277496 0.121322
v 0.174629 0.278952 0.144660
v 0.182309 0.299808 0.121313
v 0.168209 0.306399 0.144649
v 0.168673 0.250098 0.262481
v 0.164427 0.249183 0.254213
v 0.161503 0.280488 0.262469
v 0.156920 0.280995 0.254200
v 0.153856 0.313182 0.262456
v 0.148847 0.315509 0.254187
v 0.180898 0.252720 0.258618
v 0.178924 0.252297 0.262474
v 0.174694 0.279010 0.258608
v 0.172564 0.279251 0.262463
v 0.168275 0.306457 0.258597
v 0.165945 0.307546 0.262452
vn 0.9735 0.2287 -0.0007
vn 0.9733 0.2297 -0.0007
vn 0.9737 0.2278 -0.0007
vn -0.8623 -0.2029 -0.4639
vn -0.8622 -0.2036 -0.4638
vn -0.8624 -0.2027 -0.4640
vn -0.8625 -0.2019 -0.4641
vn -0.9735 -0.2287 0.0007
vn -0.9733 -0.2297 0.0007
vn -0.9737 -0.2278 0.0007
vn 0.0006 0.0005 1.0000
vn 0.8624 0.2027 0.4640
vn 0.8622 0.2036 0.4638
vn 0.8623 0.2029 0.4639
vn 0.8625 0.2019 0.4641
vn -0.8618 -0.2022 0.4653
vn -0.8616 -0.2031 0.4651
vn -0.8621 -0.2017 0.4648
vn -0.8619 -0.2014 0.4654
vn 0.8623 0.2027 0.4640
vn 0.8623 0.2029 0.4640
vn 0.8624 0.2019 0.4641
vt 0.706627 0.532716
vt 0.706627 0.562346
vt 0.675380 0.562346
vt 0.675380 0.532716
vt 0.706626 0.501830
vt 0.675380 0.501830
vt 0.050829 0.057331
vt 0.024386 0.089551
vt 0.009179 0.083129
vt 0.038604 0.047274
vt 0.079020 0.023135
vt 0.070622 0.008436
vt 0.499874 0.748789
vt 0.499874 0.729206
vt 0.515039 0.729206
vt 0.515039 0.748789
vt 0.499874 0.770001
vt 0.515038 0.770001
vt 0.801639 0.092809
vt 0.776709 0.062431
vt 0.789742 0.051711
vt 0.817852 0.085963
vt 0.750460 0.030591
vt 0.759413 0.014921
vt 0.209056 0.466541
vt 0.213596 0.496171
vt 0.210062 0.504163
vt 0.206215 0.479055
vt 0.204302 0.435655
vt 0.202350 0.453947
vt 0.795136 0.047274
vt 0.824561 0.083129
vt 0.763118 0.008436
vt 0.798512 0.094129
vt 0.774195 0.064499
vt 0.748734 0.033613
s 1
usemtl M_ds_fetch.001
f 21/1/1 19/2/2 8/3/2 10/4/1
f 23/5/3 21/1/1 10/4/1 12/6/3
f 4/7/4 2/8/5 1/9/5 3/10/6
f 6/11/7 4/7/4 3/10/6 5/12/7
f 3/13/8 1/14/9 14/15/9 16/16/8
f 5/17/10 3/13/8 16/16/8 18/18/10
f 20/19/11 22/20/11 15/21/11 13/22/11
f 22/20/11 24/23/11 17/24/11 15/21/11
f 10/25/12 8/26/13 7/27/13 9/28/14
f 12/29/15 10/25/12 9/28/14 11/30/15
f 16/31/16 14/32/17 13/22/17 15/21/18
f 18/33/19 16/31/16 15/21/18 17/24/19
f 22/20/20 20/19/13 19/34/13 21/35/21
f 24/23/22 22/20/20 21/35/21 23/36/22
