# Blender 4.4.3
# www.blender.org
mtllib basket006.mtl
o basket.006
v 0.440183 0.270848 0.101859
v 0.448256 0.274979 0.120599
v 0.418557 0.295362 0.101858
v 0.425041 0.301294 0.120599
v 0.393496 0.321701 0.101859
v 0.399902 0.327713 0.120599
v 0.350323 0.379324 0.120601
v 0.345690 0.371530 0.101861
v 0.375115 0.354489 0.120600
v 0.368784 0.348395 0.101860
v 0.434464 0.267936 0.144512
v 0.424418 0.262796 0.121189
v 0.413971 0.291165 0.144511
v 0.405903 0.283784 0.121189
v 0.389278 0.317728 0.144512
v 0.381306 0.310246 0.121190
v 0.336655 0.356305 0.121192
v 0.342422 0.366006 0.144514
v 0.356428 0.336499 0.121190
v 0.364307 0.344083 0.144513
v 0.448335 0.275049 0.254031
v 0.444783 0.273236 0.262305
v 0.425121 0.301365 0.254030
v 0.422270 0.298757 0.262305
v 0.399982 0.327784 0.254031
v 0.397167 0.325139 0.262305
v 0.348368 0.375965 0.262307
v 0.350402 0.379395 0.254033
v 0.372411 0.351880 0.262306
v 0.375195 0.354560 0.254032
v 0.436188 0.268843 0.262312
v 0.434529 0.267994 0.258460
v 0.415369 0.292443 0.262312
v 0.414036 0.291224 0.258459
v 0.390659 0.319022 0.262313
v 0.389343 0.317785 0.258460
v 0.342487 0.366063 0.258462
v 0.343439 0.367666 0.262315
v 0.364372 0.344141 0.258461
v 0.365673 0.345394 0.262313
v 0.425121 0.301365 0.254030
vn -0.7077 -0.7065 0.0008
vn -0.7499 -0.6615 0.0008
vn -0.7324 -0.6809 0.0008
vn -0.7292 -0.6843 0.0008
vn -0.7259 -0.6878 0.0008
vn 0.6790 0.5990 -0.4245
vn 0.6602 0.6196 -0.4245
vn 0.6559 0.6241 -0.4245
vn 0.6408 0.6397 -0.4245
vn 0.6644 0.6151 -0.4245
vn 0.7499 0.6615 -0.0008
vn 0.7244 0.6893 -0.0008
vn 0.7292 0.6843 -0.0008
vn 0.7077 0.7065 -0.0008
vn 0.7338 0.6793 -0.0008
vn 0.0006 0.0005 1.0000
vn -0.6790 -0.5990 0.4245
vn -0.6602 -0.6196 0.4245
vn -0.6632 -0.6165 0.4245
vn -0.6408 -0.6397 0.4245
vn -0.6572 -0.6228 0.4245
vn 0.6795 0.5994 0.4231
vn 0.6607 0.6201 0.4230
vn 0.6564 0.6246 0.4230
vn 0.6413 0.6401 0.4231
vn 0.6649 0.6155 0.4230
vn -0.6790 -0.5990 0.4244
vn -0.6631 -0.6165 0.4245
vn -0.6408 -0.6397 0.4244
vn -0.6572 -0.6227 0.4245
vt 0.577244 0.651076
vt 0.577244 0.672476
vt 0.564294 0.672476
vt 0.564294 0.651076
vt 0.577244 0.579517
vt 0.577244 0.600917
vt 0.564294 0.600917
vt 0.564294 0.579517
vt 0.577244 0.625997
vt 0.564294 0.625997
vt 0.416870 0.260742
vt 0.414917 0.305128
vt 0.399212 0.301949
vt 0.401031 0.260601
vt 0.415661 0.214582
vt 0.399825 0.214582
vt 0.401031 0.168563
vt 0.399212 0.127215
vt 0.414917 0.124036
vt 0.416870 0.168422
vt 0.532084 0.586744
vt 0.532084 0.610987
vt 0.516919 0.610987
vt 0.516919 0.586744
vt 0.532084 0.636198
vt 0.516919 0.636198
vt 0.532084 0.661409
vt 0.532084 0.685652
vt 0.516919 0.685652
vt 0.516919 0.661409
vt 0.440744 0.260530
vt 0.442496 0.300336
vt 0.425752 0.303725
vt 0.423858 0.260680
vt 0.441854 0.214582
vt 0.425267 0.214582
vt 0.440744 0.168634
vt 0.423858 0.168484
vt 0.442496 0.128828
vt 0.425752 0.125438
vt 0.151088 0.662367
vt 0.151379 0.697767
vt 0.147730 0.701724
vt 0.147408 0.662543
vt 0.151312 0.616624
vt 0.147633 0.616624
vt 0.147408 0.570705
vt 0.147730 0.531524
vt 0.151379 0.535481
vt 0.151088 0.570880
vt 0.418823 0.305128
vt 0.418079 0.214582
vt 0.418823 0.124036
vt 0.444000 0.260501
vt 0.445724 0.299682
vt 0.445203 0.214582
vt 0.445724 0.129482
vt 0.444000 0.168663
s 1
usemtl M_ds_fetch.001
f 39/1/1 37/2/1 18/3/1 20/4/1
f 32/5/2 34/6/2 13/7/2 11/8/2
f 34/6/3 36/9/4 15/10/4 13/7/3
f 36/9/4 39/1/5 20/4/5 15/10/4
f 4/11/6 2/12/6 1/13/6 3/14/6
f 6/15/7 4/11/8 3/14/8 5/16/7
f 10/17/9 8/18/9 7/19/9 9/20/9
f 5/16/7 10/17/10 9/20/10 6/15/7
f 2/21/11 4/22/11 23/23/11 21/24/11
f 4/22/12 6/25/13 25/26/13 23/23/12
f 9/27/14 7/28/14 28/29/14 30/30/14
f 6/25/13 9/27/15 30/30/15 25/26/13
f 33/31/16 31/32/16 22/33/16 24/34/16
f 35/35/16 33/31/16 24/34/16 26/36/16
f 40/37/16 35/35/16 26/36/16 29/38/16
f 38/39/16 40/37/16 29/38/16 27/40/16
f 14/41/17 12/42/17 11/43/17 13/44/17
f 16/45/18 14/41/19 13/44/19 15/46/18
f 20/47/20 18/48/20 17/49/20 19/50/20
f 15/46/18 20/47/21 19/50/21 16/45/18
f 24/34/22 22/33/22 21/51/22 23/11/22
f 26/36/23 24/34/24 23/11/24 25/52/23
f 30/20/25 28/53/25 27/40/25 29/38/25
f 25/52/23 30/20/26 29/38/26 26/36/23
f 34/54/27 32/55/27 31/32/27 33/31/27
f 36/56/18 34/54/28 33/31/28 35/35/18
f 40/37/29 38/39/29 37/57/29 39/58/29
f 35/35/18 40/37/30 39/58/30 36/56/18
